# xmcd
#
# Track frame offsets: 
#        150
#        18819
#        39078
#        57364
#        83240
#        104130
#        121668
#        140823
#        159930
#        182659
#        200950
#
# Disc length: 2918 seconds
#
# Revision: 1
# Processed by: cddbd v1.5.2PL0 Copyright (c) Steve Scherf et al.
# Submitted via: ExactAudioCopy v1.3
#
DISCID=910b640b
DTITLE=David Benoit - David Benoit And Friends
DYEAR=2019
DGENRE=Jazz
TTITLE0=Ballad Of Jane Hawk
TTITLE1=Make It Real
TTITLE2=Vernazza
TTITLE3=Moon And Sand
TTITLE4=Sly Fox
TTITLE5=How Deep Is The Ocean
TTITLE6=Dave G
TTITLE7=Sienna Step
TTITLE8=Feel It Still
TTITLE9=96 132
TTITLE10=Viva La Vida
EXTD=
EXTT0=
EXTT1=
EXTT2=
EXTT3=
EXTT4=
EXTT5=
EXTT6=
EXTT7=
EXTT8=
EXTT9=
EXTT10=
PLAYORDER=
